<?xml version="1.0" encoding="UTF-8"?>
<!DOCTYPE svg PUBLIC "-//W3C//DTD SVG 1.1//EN" "http://www.w3.org/Graphics/SVG/1.1/DTD/svg11.dtd">
<svg xmlns="http://www.w3.org/2000/svg" version="1.1" width="512px" height="512px"  xmlns:xlink="http://www.w3.org/1999/xlink">
<g><path fill="current" d="M 511.5,143.5 C 511.5,147.167 511.5,150.833 511.5,154.5C 430.09,237.411 348.09,319.911 265.5,402C 258.833,406.667 252.167,406.667 245.5,402C 162.91,319.911 80.9104,237.411 -0.5,154.5C -0.5,150.833 -0.5,147.167 -0.5,143.5C 9.53838,130.624 20.8717,118.791 33.5,108C 40.0018,104.546 46.3352,104.879 52.5,109C 120.014,176.68 187.68,244.18 255.5,311.5C 323.32,244.18 390.986,176.68 458.5,109C 464.665,104.879 470.998,104.546 477.5,108C 490.128,118.791 501.462,130.624 511.5,143.5 Z"/></g>
</svg>
