<?xml version="1.0" standalone="no"?>
<!DOCTYPE svg PUBLIC "-//W3C//DTD SVG 20010904//EN"
 "http://www.w3.org/TR/2001/REC-SVG-20010904/DTD/svg10.dtd">
<svg version="1.0" xmlns="http://www.w3.org/2000/svg"
 viewBox="0 0 1800.000000 1800.000000"
 preserveAspectRatio="xMidYMid meet">

<g transform="translate(0.000000,1800.000000) scale(0.100000,-0.100000)"
fill="current" stroke="none">
<path d="M8945 17916 c-94 -24 -196 -89 -251 -161 -39 -52 -84 -187 -84 -254
0 -104 44 -217 112 -287 30 -32 38 -47 33 -63 -10 -32 -233 -254 -297 -296
-75 -49 -133 -52 -199 -11 -138 86 -176 114 -297 222 -195 174 -169 161 -329
169 -251 14 -622 -13 -694 -50 -15 -8 -43 -15 -60 -15 -37 0 -238 -60 -313
-93 -184 -82 -283 -146 -391 -252 -79 -78 -205 -238 -205 -260 0 -4 -16 -43
-35 -86 -20 -43 -42 -111 -50 -151 -8 -40 -19 -87 -24 -105 -5 -18 -12 -60
-16 -95 -8 -85 10 -496 24 -531 6 -15 15 -57 21 -93 14 -85 71 -258 117 -354
113 -234 305 -474 462 -579 60 -40 91 -46 316 -57 187 -9 348 7 465 47 52 18
106 39 120 48 14 9 41 24 60 33 70 33 175 125 238 209 35 46 70 87 77 92 9 4
30 -7 60 -33 57 -49 79 -53 70 -10 -4 16 -45 123 -91 237 -47 114 -109 267
-138 338 -50 122 -123 289 -167 381 -10 22 -19 45 -19 50 0 5 -13 36 -29 69
-55 114 -89 190 -101 230 -7 22 -19 47 -26 55 -7 9 -20 34 -28 55 -19 53 -100
233 -168 375 -31 63 -68 144 -83 180 -15 36 -43 93 -61 127 -19 34 -34 68 -34
76 0 21 33 47 61 47 13 0 46 7 72 15 27 8 140 20 261 27 286 16 287 15 356
-114 72 -137 245 -489 295 -603 31 -71 64 -146 72 -165 42 -94 127 -302 148
-360 13 -36 42 -114 65 -175 54 -141 262 -754 294 -865 32 -110 44 -159 51
-192 4 -19 12 -28 24 -28 33 0 140 80 243 182 55 55 115 106 132 113 29 13 37
12 82 -9 31 -15 69 -46 103 -86 30 -35 90 -89 133 -121 43 -32 86 -65 94 -74
40 -40 73 -8 99 95 8 36 24 90 34 120 11 30 29 91 41 135 12 44 37 118 55 165
18 47 50 139 71 205 20 66 45 136 54 155 10 19 23 59 30 88 6 28 16 54 21 57
4 3 18 37 29 76 12 38 29 84 39 102 10 18 24 55 30 82 7 28 19 60 27 72 8 13
25 51 38 85 54 141 112 276 183 428 25 52 59 124 75 160 53 113 150 304 169
331 10 14 25 45 35 68 13 34 26 47 58 62 36 16 60 18 201 13 88 -4 196 -12
240 -20 247 -44 245 -42 201 -131 -16 -32 -69 -146 -118 -253 -49 -107 -106
-229 -125 -270 -19 -41 -41 -92 -49 -112 -7 -21 -24 -57 -37 -80 -14 -24 -28
-54 -32 -68 -4 -14 -29 -70 -55 -125 -26 -55 -52 -113 -58 -130 -19 -55 -73
-179 -82 -190 -4 -5 -18 -37 -31 -70 -12 -33 -25 -64 -29 -70 -5 -5 -24 -50
-43 -100 -19 -49 -56 -139 -82 -200 -26 -60 -58 -138 -71 -173 -13 -35 -31
-77 -40 -95 -19 -36 -65 -169 -61 -173 2 -2 21 5 43 15 77 38 81 37 108 -16
62 -122 247 -271 411 -330 155 -56 395 -75 627 -50 172 19 212 41 363 197 251
260 413 631 446 1025 13 160 6 388 -16 515 -40 231 -178 471 -354 613 -164
133 -436 258 -646 297 -27 5 -68 13 -90 19 -147 38 -241 46 -515 45 -172 0
-284 -5 -300 -11 -14 -6 -64 -46 -112 -90 -242 -219 -388 -317 -474 -315 -58
0 -143 61 -280 197 -125 124 -136 153 -81 200 21 17 50 59 69 100 31 67 33 76
33 185 0 108 -2 120 -28 170 -16 30 -43 74 -60 97 -37 49 -141 120 -201 138
-67 20 -175 25 -231 11z"/>
<path d="M5294 17188 c-107 -82 -380 -349 -499 -488 -139 -161 -237 -293 -320
-430 -11 -18 -34 -53 -51 -79 -34 -52 -184 -318 -184 -327 0 -4 -23 -54 -52
-113 -110 -228 -231 -570 -308 -876 -30 -118 -99 -502 -110 -613 -5 -53 -14
-128 -20 -167 -14 -103 -28 -452 -27 -674 2 -245 2 -244 114 -145 96 85 273
263 321 324 20 25 54 65 77 90 43 49 68 82 188 254 98 139 152 221 207 315 80
136 106 182 158 286 79 157 168 355 193 430 12 33 40 110 64 170 23 61 51 144
60 185 10 41 24 86 30 100 7 14 15 43 19 65 4 22 16 69 26 105 63 226 133 623
150 854 5 72 14 164 19 205 16 121 23 522 10 538 -16 19 -32 16 -65 -9z"/>
<path d="M12636 17169 c-3 -17 -4 -34 -1 -38 2 -4 5 -73 6 -152 0 -79 5 -189
10 -244 5 -55 16 -176 24 -270 48 -550 176 -1063 407 -1630 30 -72 123 -270
144 -305 8 -14 22 -41 31 -60 8 -19 47 -88 87 -153 39 -65 81 -137 94 -160 13
-23 36 -58 50 -77 15 -19 36 -49 47 -66 31 -50 125 -186 152 -219 159 -199
427 -484 525 -559 66 -49 65 -51 66 266 1 323 -8 504 -37 733 -25 198 -85 536
-105 592 -8 23 -18 63 -22 90 -3 26 -11 56 -16 66 -5 9 -20 59 -33 110 -13 50
-35 124 -49 162 -116 325 -148 404 -257 619 -244 484 -520 841 -968 1249 -68
62 -90 77 -116 77 -28 0 -33 -4 -39 -31z"/>
<path d="M2463 15608 c-6 -7 -48 -116 -95 -243 -85 -228 -138 -400 -138 -442
0 -11 -9 -50 -20 -85 -23 -70 -62 -289 -86 -473 -10 -75 -18 -243 -21 -450 -5
-314 -2 -394 27 -685 18 -181 92 -561 149 -770 65 -234 76 -269 186 -580 61
-173 183 -463 240 -570 7 -14 32 -63 56 -110 61 -123 162 -292 177 -298 8 -2
20 2 27 9 16 17 110 270 120 324 3 21 13 51 20 65 7 14 16 44 20 65 4 22 22
101 40 175 17 74 38 173 44 220 7 47 19 117 26 155 22 113 55 556 55 734 0
214 -40 735 -65 831 -7 30 -16 84 -20 120 -4 36 -15 99 -25 140 -10 41 -26
120 -35 175 -9 55 -23 118 -31 140 -7 22 -22 78 -34 125 -36 144 -122 414
-185 580 -10 25 -28 72 -40 105 -24 64 -95 231 -148 353 -18 40 -68 146 -112
235 -62 125 -85 163 -101 165 -11 2 -25 -3 -31 -10z"/>
<path d="M15483 15593 c-27 -39 -174 -345 -218 -453 -122 -298 -165 -406 -187
-470 -46 -132 -127 -393 -143 -460 -9 -36 -24 -92 -35 -125 -20 -64 -72 -320
-100 -500 -10 -60 -22 -135 -28 -165 -6 -30 -16 -120 -22 -200 -6 -80 -15
-195 -20 -256 -14 -160 -12 -427 5 -679 15 -213 32 -382 40 -395 2 -4 13 -65
24 -136 11 -71 34 -182 50 -247 17 -65 31 -129 31 -143 0 -14 8 -41 19 -62 10
-20 21 -53 25 -73 6 -36 72 -221 101 -286 11 -25 21 -33 40 -33 18 0 29 9 41
33 9 17 47 86 84 152 37 66 71 131 75 145 4 14 13 32 21 40 7 9 21 36 29 60 9
25 22 54 29 65 46 70 210 491 292 750 86 272 105 341 149 552 13 62 26 117 30
122 6 10 26 143 67 451 18 134 21 207 21 535 0 328 -3 402 -21 545 -27 213
-55 376 -81 470 -11 41 -28 109 -37 150 -20 93 -110 356 -196 575 -28 71 -55
83 -85 38z"/>
<path d="M8972 14527 c-57 -53 -161 -127 -177 -127 -7 0 -24 -9 -38 -20 -14
-11 -65 -37 -114 -57 l-88 -37 -160 -1 c-154 0 -163 1 -259 33 -54 18 -110 41
-124 52 -14 12 -45 29 -70 40 -24 11 -60 33 -80 48 -53 41 -80 54 -102 47 -10
-3 -47 -29 -82 -57 -100 -80 -318 -179 -478 -216 -25 -6 -103 -16 -175 -23
-104 -10 -133 -16 -147 -31 -15 -16 -16 -56 -17 -363 -2 -385 -4 -369 75 -602
l44 -133 0 -3887 c0 -3539 -2 -3892 -16 -3933 -14 -37 -15 -72 -10 -202 6
-154 6 -157 -16 -172 -19 -13 -58 -16 -223 -16 -143 0 -204 -3 -213 -12 -9 -9
-12 -73 -12 -228 0 -196 2 -218 18 -233 17 -15 222 -17 2530 -17 2495 0 2512
0 2532 20 19 19 20 34 20 234 0 161 -3 216 -13 224 -8 7 -91 12 -214 14 -164
2 -205 6 -217 18 -17 17 -26 227 -12 297 7 41 6 44 -36 82 l-43 40 -2 3743
c-2 2059 0 3801 4 3872 6 124 7 130 35 162 16 18 37 61 48 96 10 35 34 117 54
183 l36 120 0 335 c0 279 -2 339 -15 357 -12 18 -28 22 -112 27 -205 14 -330
45 -493 124 -64 31 -197 111 -254 153 -22 16 -47 29 -57 29 -9 0 -39 -18 -66
-40 -96 -76 -213 -134 -363 -177 -73 -22 -264 -21 -351 1 -104 27 -300 137
-421 237 -26 22 -54 39 -63 39 -9 0 -37 -19 -63 -43z m-895 -1445 c7 -4 19
-24 28 -45 13 -32 15 -440 15 -3854 0 -2544 -3 -3830 -10 -3854 -6 -20 -16
-42 -23 -47 -8 -7 -88 -13 -194 -15 -164 -4 -184 -3 -212 14 l-31 19 0 3872
c0 2130 4 3878 8 3884 19 28 53 33 227 34 99 0 185 -4 192 -8z m1159 -16 c12
-17 14 -565 14 -3887 0 -3747 -1 -3867 -18 -3890 -19 -22 -23 -22 -206 -22
-172 0 -189 1 -214 20 l-27 20 -3 3867 -2 3867 25 25 25 25 196 -3 c180 -3
197 -5 210 -22z m1123 7 l22 -18 -1 -3880 c0 -3630 -1 -3881 -17 -3892 -19
-15 -33 -16 -247 -15 -134 1 -161 4 -177 18 -19 17 -19 111 -19 3891 0 3860 0
3873 20 3893 19 19 33 20 209 20 165 0 192 -2 210 -17z"/>
<path d="M5525 14035 c-55 -36 -113 -73 -129 -83 -16 -9 -42 -28 -59 -42 -17
-14 -58 -45 -92 -70 -193 -141 -218 -162 -439 -378 -84 -82 -199 -210 -281
-311 -27 -34 -62 -76 -76 -94 -27 -33 -101 -139 -166 -237 -20 -30 -45 -68
-57 -85 -117 -169 -344 -637 -459 -945 -49 -131 -141 -436 -159 -525 -6 -27
-19 -75 -29 -105 -10 -30 -21 -73 -24 -95 -4 -22 -17 -94 -30 -160 -60 -297
-120 -870 -94 -902 17 -20 42 -16 80 12 47 35 314 233 364 271 82 62 440 422
537 539 54 66 113 138 131 160 55 66 214 295 282 405 12 19 38 60 58 91 20 30
37 60 37 66 0 6 10 22 21 37 27 34 230 436 254 502 10 27 30 78 45 114 46 107
118 300 141 375 12 39 25 75 30 81 5 6 15 45 23 87 8 42 20 85 26 96 6 11 19
60 29 108 10 48 28 126 39 173 35 142 61 269 77 385 9 61 22 146 30 190 22
123 34 222 37 315 3 84 3 85 -22 87 -17 2 -58 -19 -125 -62z"/>
<path d="M12335 14090 c-7 -12 11 -239 25 -320 6 -30 19 -115 31 -189 45 -297
97 -543 155 -731 12 -41 26 -95 29 -120 4 -25 14 -58 22 -74 9 -17 24 -57 33
-90 55 -185 214 -569 314 -756 31 -58 66 -125 77 -150 12 -25 30 -56 39 -70 9
-14 34 -54 55 -90 85 -146 249 -392 320 -479 352 -433 663 -735 969 -939 44
-30 92 -63 105 -73 28 -22 54 -24 70 -6 33 41 -81 910 -150 1140 -11 37 -24
89 -29 115 -10 54 -70 266 -95 332 -9 25 -22 68 -30 95 -49 177 -298 737 -365
822 -11 14 -20 31 -20 37 0 6 -23 47 -50 91 -27 44 -59 97 -70 117 -11 21 -33
55 -48 77 -59 84 -141 197 -160 221 -30 37 -86 108 -130 165 -46 59 -366 383
-435 440 -85 70 -141 114 -187 147 -25 17 -67 50 -95 73 -27 23 -77 59 -110
80 -33 21 -89 57 -125 80 -104 68 -131 78 -145 55z"/>
<path d="M971 12163 c-10 -21 9 -335 34 -538 26 -219 112 -614 163 -755 9 -25
24 -72 33 -105 20 -73 104 -303 134 -370 8 -16 35 -77 60 -135 26 -58 53 -112
60 -120 7 -8 16 -26 20 -40 4 -14 28 -61 52 -105 25 -44 55 -98 68 -120 41
-74 117 -200 156 -260 21 -33 53 -82 69 -110 17 -27 53 -79 80 -115 28 -36 61
-81 75 -100 146 -199 413 -509 590 -684 99 -97 320 -297 443 -399 34 -28 82
-68 105 -87 45 -39 156 -124 197 -153 14 -9 45 -33 70 -52 25 -19 55 -35 66
-35 19 0 22 7 28 73 4 41 4 80 1 88 -2 8 -9 50 -14 94 -35 288 -93 613 -127
708 -8 23 -22 73 -30 111 -16 75 -107 354 -131 401 -9 16 -28 65 -43 110 -30
87 -131 313 -155 348 -8 12 -15 31 -15 42 0 11 -6 31 -14 45 -7 14 -30 57 -51
95 -20 39 -49 90 -63 115 -14 25 -35 61 -47 81 -23 42 -41 70 -110 179 -27 42
-61 96 -75 119 -14 23 -50 77 -81 120 -32 43 -63 89 -70 102 -11 22 -68 98
-141 189 -15 19 -66 85 -114 145 -47 61 -98 122 -113 136 -14 15 -60 64 -100
110 -90 101 -336 347 -481 481 -198 182 -478 408 -505 408 -8 0 -18 -8 -24
-17z"/>
<path d="M16899 12102 c-53 -42 -128 -104 -168 -137 -41 -33 -86 -69 -101 -80
-15 -11 -42 -36 -62 -55 -19 -19 -90 -87 -158 -150 -256 -237 -511 -515 -705
-770 -22 -29 -62 -80 -89 -114 -27 -33 -55 -75 -62 -92 -7 -17 -19 -36 -27
-42 -8 -7 -47 -63 -87 -125 -40 -61 -85 -130 -100 -152 -15 -22 -37 -60 -50
-85 -12 -25 -30 -54 -40 -65 -18 -21 -47 -71 -117 -203 -24 -45 -52 -97 -63
-115 -11 -17 -20 -38 -20 -46 0 -8 -24 -64 -54 -125 -56 -115 -79 -169 -126
-296 -16 -41 -46 -122 -68 -180 -54 -145 -102 -294 -102 -318 0 -11 -10 -51
-21 -88 -54 -172 -134 -645 -146 -866 l-6 -118 24 0 c26 0 76 33 249 164 190
144 624 530 730 649 14 16 61 68 105 116 45 48 106 118 137 156 31 39 102 126
158 195 104 128 132 167 280 385 189 279 405 692 515 985 61 162 82 224 93
265 6 22 20 72 32 110 63 204 124 496 156 745 17 133 38 495 30 516 -10 27
-42 13 -137 -64z"/>
<path d="M5240 11129 c-201 -191 -258 -249 -341 -346 -157 -184 -313 -401
-369 -513 -12 -25 -28 -52 -35 -60 -25 -29 -177 -325 -190 -370 -4 -14 -27
-69 -52 -124 -65 -144 -176 -491 -233 -726 -32 -132 -97 -568 -115 -775 -25
-272 -14 -1045 16 -1079 16 -18 57 6 132 80 90 88 201 212 307 343 71 89 94
121 207 291 78 118 197 320 229 390 9 19 38 80 64 135 27 55 58 123 68 150 53
134 65 162 77 190 28 62 74 193 95 270 12 44 39 134 60 200 21 66 41 140 45
165 4 25 15 79 26 120 10 41 26 118 34 170 9 52 24 149 35 215 43 263 61 573
58 965 l-3 365 -25 3 c-19 2 -41 -13 -90 -59z"/>
<path d="M12654 11178 c-12 -20 -15 -368 -5 -643 16 -411 41 -643 108 -970 55
-270 63 -302 83 -360 12 -33 37 -118 56 -188 19 -71 41 -143 49 -160 8 -18 38
-90 66 -162 28 -71 60 -151 70 -177 22 -55 124 -273 141 -303 7 -11 24 -41 38
-67 60 -112 186 -316 262 -426 89 -128 278 -351 419 -495 84 -85 101 -98 125
-95 29 3 29 4 36 88 4 47 10 238 14 424 7 348 -2 554 -31 741 -8 50 -22 144
-30 210 -52 399 -164 804 -330 1195 -56 132 -191 393 -224 437 -12 14 -21 29
-21 33 0 9 -59 111 -90 155 -11 17 -34 51 -50 76 -65 100 -303 373 -464 532
-167 164 -202 188 -222 155z"/>
<path d="M893 8874 c-3 -10 -1 -31 6 -48 7 -17 26 -78 42 -134 16 -57 36 -117
44 -132 8 -16 20 -53 26 -82 6 -29 20 -71 31 -93 11 -22 30 -69 43 -105 22
-63 60 -148 88 -200 7 -14 40 -79 73 -145 32 -66 73 -142 90 -170 17 -27 48
-79 68 -115 60 -105 81 -138 103 -162 11 -13 26 -34 33 -48 29 -56 235 -315
384 -484 148 -166 397 -402 546 -516 25 -19 63 -51 85 -70 22 -20 50 -43 61
-51 12 -8 68 -49 125 -92 116 -87 351 -244 387 -258 13 -5 38 -20 55 -33 18
-13 46 -30 62 -38 17 -8 82 -44 145 -80 262 -147 708 -345 757 -336 26 5 28
58 4 105 -10 21 -26 63 -34 93 -19 66 -61 180 -88 236 -10 22 -19 44 -19 48 0
23 -227 479 -264 531 -11 16 -42 66 -68 110 -80 136 -246 374 -360 513 -200
246 -499 555 -718 740 -263 222 -374 307 -562 429 -44 29 -88 58 -97 66 -9 7
-32 23 -51 34 -19 11 -87 52 -152 91 -64 40 -119 72 -123 72 -4 0 -19 8 -33
19 -15 10 -70 41 -122 68 -52 28 -108 57 -125 66 -71 39 -255 125 -280 131
-15 4 -42 18 -60 32 -37 28 -92 32 -102 8z"/>
<path d="M17008 8866 c-20 -13 -47 -27 -59 -31 -88 -28 -668 -338 -794 -425
-22 -15 -80 -53 -130 -85 -108 -69 -99 -63 -225 -153 -56 -40 -138 -103 -183
-139 -45 -37 -104 -85 -132 -107 -182 -148 -593 -550 -682 -668 -15 -20 -55
-69 -88 -109 -68 -82 -82 -100 -181 -236 -95 -133 -162 -232 -222 -333 -56
-94 -202 -357 -202 -365 0 -2 -24 -55 -54 -117 -29 -62 -57 -124 -61 -138 -4
-14 -18 -46 -31 -72 -13 -26 -24 -56 -24 -66 0 -10 -9 -36 -20 -57 -12 -22
-26 -60 -32 -85 -6 -25 -19 -62 -29 -82 -11 -21 -19 -55 -19 -78 0 -35 3 -40
24 -40 13 0 43 8 67 18 24 10 78 32 119 47 41 16 84 35 95 42 11 7 38 19 60
26 226 80 975 521 1129 665 17 16 47 38 67 50 19 12 44 31 55 43 10 12 42 39
69 59 256 190 706 668 910 965 26 38 56 81 67 95 27 35 113 171 144 228 68
124 88 162 124 232 69 135 128 264 146 320 9 30 27 73 39 95 13 22 28 63 34
90 7 28 23 78 36 112 35 85 78 241 79 283 1 32 -2 35 -29 38 -20 2 -44 -6 -67
-22z"/>
<path d="M5030 7923 c-23 -49 -51 -108 -64 -133 -13 -25 -29 -63 -36 -85 -7
-22 -19 -51 -26 -65 -18 -32 -61 -148 -84 -225 -9 -33 -25 -77 -33 -98 -15
-34 -60 -211 -116 -452 -12 -49 -26 -137 -32 -195 -5 -58 -16 -148 -24 -200
-19 -129 -28 -514 -17 -745 11 -233 45 -525 78 -665 13 -58 24 -113 24 -123 0
-60 156 -635 220 -807 17 -47 44 -121 60 -165 15 -44 60 -150 100 -235 40 -85
79 -175 89 -199 29 -78 72 -81 97 -8 7 20 26 65 42 99 16 35 39 90 52 123 12
33 31 80 43 105 11 25 30 83 43 130 12 47 36 132 53 190 17 58 40 152 52 210
11 58 26 130 34 160 16 62 47 281 70 502 18 173 21 734 5 886 -33 309 -67 562
-85 627 -7 28 -19 88 -26 135 -6 47 -20 106 -29 131 -10 25 -21 67 -25 95 -4
27 -18 82 -31 123 -13 40 -24 80 -24 88 0 8 -13 54 -29 101 -15 48 -35 110
-44 137 -9 28 -46 131 -82 230 -37 99 -73 198 -81 220 -8 22 -21 52 -30 67 -8
15 -22 50 -30 78 -13 45 -18 50 -44 50 -28 0 -33 -6 -70 -87z"/>
<path d="M12872 7985 c-7 -14 -12 -32 -12 -38 0 -7 -9 -31 -20 -52 -24 -46
-170 -432 -201 -533 -12 -37 -32 -98 -45 -135 -13 -38 -24 -77 -24 -88 0 -11
-9 -45 -20 -77 -12 -31 -28 -93 -36 -137 -9 -43 -20 -88 -26 -99 -10 -18 -31
-127 -77 -391 -35 -200 -63 -467 -71 -684 -9 -215 1 -640 19 -796 18 -158 51
-385 60 -409 6 -13 17 -68 26 -122 18 -104 76 -329 94 -363 6 -11 19 -55 30
-98 21 -84 65 -200 137 -358 12 -27 29 -67 38 -88 13 -33 20 -38 42 -35 15 2
31 10 35 18 28 53 177 389 202 455 69 185 100 274 116 336 10 37 21 71 24 76
14 23 128 476 143 568 3 22 14 74 25 115 19 77 25 119 60 440 27 245 30 772 5
950 -9 63 -23 171 -31 240 -16 149 -98 501 -155 670 -49 146 -82 237 -100 275
-11 22 -30 69 -44 105 -13 36 -48 112 -77 170 -46 88 -58 105 -80 108 -19 2
-28 -3 -37 -23z"/>
<path d="M1075 6270 c-7 -23 44 -130 149 -310 30 -52 67 -116 80 -142 24 -43
48 -78 168 -239 204 -274 457 -543 682 -724 169 -136 179 -144 248 -190 37
-25 70 -49 73 -54 3 -5 24 -20 48 -33 23 -14 89 -54 147 -89 222 -137 421
-239 665 -341 198 -83 476 -183 540 -194 22 -4 56 -15 75 -25 19 -11 45 -19
58 -19 13 0 83 -15 155 -34 73 -18 170 -39 217 -46 47 -7 108 -18 135 -26 93
-24 149 -28 164 -10 15 18 16 17 -37 107 -15 25 -38 66 -51 90 -55 102 -241
372 -355 514 -248 310 -662 693 -971 898 -38 26 -83 56 -100 67 -79 54 -184
119 -225 140 -25 12 -53 29 -62 37 -19 17 -457 239 -491 248 -12 4 -44 17 -72
30 -46 22 -82 36 -312 124 -45 17 -90 31 -100 31 -10 0 -37 9 -60 19 -22 11
-67 25 -100 31 -32 7 -78 20 -103 30 -25 10 -76 24 -115 31 -38 6 -83 19 -100
27 -16 9 -57 19 -90 23 -33 3 -87 14 -120 24 -33 10 -76 20 -97 22 -30 4 -37
2 -43 -17z"/>
<path d="M16835 6280 c-51 -20 -136 -40 -174 -40 -23 0 -54 -6 -69 -14 -15 -8
-73 -26 -127 -40 -183 -47 -285 -75 -303 -85 -10 -5 -47 -17 -82 -26 -36 -9
-69 -20 -75 -25 -5 -4 -28 -13 -50 -20 -54 -18 -317 -125 -419 -172 -69 -31
-376 -189 -431 -222 -55 -32 -105 -63 -268 -165 -192 -120 -633 -482 -776
-636 -204 -220 -333 -374 -439 -525 -37 -52 -77 -108 -89 -125 -12 -16 -34
-50 -48 -75 -14 -25 -43 -74 -65 -110 -21 -36 -53 -93 -71 -128 -31 -58 -32
-63 -17 -79 16 -15 23 -15 110 1 51 9 131 24 178 32 114 20 373 82 435 104 28
10 70 21 94 24 24 4 67 17 95 30 28 13 67 27 86 31 19 4 47 14 63 22 15 7 53
22 85 32 31 11 95 36 142 56 47 20 102 43 123 50 49 18 392 190 426 214 14 10
60 37 101 60 126 70 355 220 425 278 22 19 83 68 135 109 167 134 396 360 545
539 144 173 284 363 320 434 11 21 27 47 36 57 43 50 199 359 199 393 0 29 -2
31 -37 30 -21 0 -47 -4 -58 -9z"/>
<path d="M6067 4158 c-15 -12 -17 -68 -18 -642 0 -371 3 -632 8 -637 13 -13
5953 -13 5965 -1 6 6 9 280 9 638 -1 580 -2 630 -18 642 -25 18 -5921 18
-5946 0z"/>
<path d="M2990 3574 c0 -14 10 -39 23 -54 12 -16 32 -44 45 -62 110 -158 127
-178 326 -401 124 -139 141 -156 251 -257 72 -66 226 -192 281 -230 12 -8 80
-56 150 -106 180 -127 224 -153 457 -271 78 -40 180 -88 227 -108 47 -20 103
-45 126 -56 23 -10 45 -19 50 -19 5 0 41 -13 79 -29 39 -16 138 -50 220 -76
83 -25 164 -50 180 -55 17 -5 68 -18 115 -29 47 -11 99 -25 115 -31 17 -7 70
-16 118 -20 87 -8 132 -26 144 -56 8 -21 -21 -49 -66 -62 -21 -7 -69 -29 -107
-50 -38 -21 -85 -44 -104 -51 -19 -8 -92 -45 -163 -84 -152 -82 -180 -113
-141 -151 14 -15 68 -16 522 -10 l507 7 75 -27 c102 -36 121 -57 123 -132 2
-51 -3 -70 -32 -125 -42 -80 -101 -170 -186 -279 -247 -320 -296 -391 -320
-473 -29 -97 -18 -135 48 -168 35 -19 52 -21 117 -16 199 16 420 105 985 398
110 57 223 114 250 127 28 14 61 33 75 42 26 18 211 115 400 210 58 29 117 61
131 71 14 10 38 21 55 25 16 3 49 17 74 29 48 24 112 54 224 104 38 17 97 38
130 47 113 29 142 60 118 128 -5 17 -13 58 -17 91 -3 33 -13 89 -21 125 -8 36
-23 121 -34 190 -24 166 -51 326 -107 645 -13 77 -28 171 -33 209 -6 38 -17
80 -25 93 l-15 23 -433 2 c-237 2 -484 1 -547 0 -123 -4 -132 -7 -205 -69
-165 -142 -364 -304 -480 -393 -22 -17 -60 -46 -83 -65 -68 -54 -82 -49 -187
57 -96 98 -245 233 -341 310 -101 80 -322 242 -365 268 -23 14 -71 43 -105 65
-133 84 -151 94 -222 130 -39 20 -74 41 -77 45 -3 5 -22 14 -43 21 -20 6 -48
19 -62 29 -14 9 -68 36 -120 59 -52 23 -117 53 -145 65 -27 13 -63 27 -79 30
-15 4 -47 16 -70 26 -57 27 -417 150 -439 150 -9 0 -48 11 -86 24 -37 13 -88
27 -112 31 -24 3 -76 15 -115 26 -39 10 -102 23 -140 28 -38 5 -118 19 -179
31 -91 17 -654 80 -717 80 -13 0 -18 -8 -18 -26z"/>
<path d="M14870 3589 c-47 -5 -175 -18 -285 -29 -274 -27 -595 -86 -850 -156
-124 -34 -452 -143 -495 -164 -19 -10 -55 -23 -80 -30 -25 -7 -72 -24 -105
-40 -33 -15 -81 -35 -106 -44 -26 -9 -75 -34 -110 -55 -35 -21 -75 -42 -89
-46 -14 -4 -60 -28 -104 -51 -43 -24 -81 -44 -84 -44 -3 0 -19 -11 -36 -24
-17 -12 -47 -31 -66 -41 -38 -19 -272 -172 -330 -215 -228 -171 -320 -248
-514 -434 -38 -36 -77 -66 -87 -66 -9 0 -50 27 -91 60 -195 161 -315 260 -371
308 -34 29 -88 71 -121 92 l-58 40 -543 0 c-510 0 -543 -1 -558 -18 -11 -12
-24 -67 -37 -163 -12 -79 -25 -160 -30 -179 -5 -19 -14 -75 -20 -125 -6 -49
-19 -135 -30 -190 -10 -55 -29 -163 -40 -240 -12 -77 -25 -156 -30 -175 -5
-19 -14 -75 -20 -125 -6 -49 -18 -113 -26 -142 -28 -89 -6 -119 102 -143 27
-6 76 -23 109 -37 33 -14 96 -41 140 -60 167 -72 443 -209 620 -309 60 -33
118 -64 330 -174 88 -46 187 -98 220 -116 149 -81 409 -204 545 -259 254 -102
457 -132 518 -75 52 49 38 149 -40 272 -51 80 -201 285 -277 378 -21 25 -59
79 -86 120 -27 41 -59 91 -72 111 -26 39 -53 126 -53 171 0 100 191 154 505
143 77 -2 268 -8 425 -11 314 -7 330 -4 317 48 -10 39 -112 98 -478 280 -74
37 -141 73 -147 81 -19 23 -3 46 37 55 136 32 356 87 411 104 202 63 448 153
565 208 251 117 381 181 436 216 37 24 84 52 105 63 22 12 77 48 124 82 47 33
96 68 110 77 131 88 383 305 530 458 139 144 320 364 406 494 59 89 64 101 52
118 -11 13 -15 13 -138 1z"/>
<path d="M8664 2623 c-4 -14 3 -69 14 -122 12 -53 29 -145 38 -206 8 -60 20
-132 25 -160 12 -57 47 -270 89 -530 45 -285 62 -369 76 -384 10 -11 49 -15
170 -17 199 -2 195 -5 213 146 7 58 21 141 32 185 10 44 19 96 19 115 0 19 11
93 25 165 20 103 107 611 132 773 10 64 23 63 -424 61 l-403 -1 -6 -25z"/>
</g>
</svg>
