<?xml version="1.0" standalone="no"?>
<!DOCTYPE svg PUBLIC "-//W3C//DTD SVG 20010904//EN"
 "http://www.w3.org/TR/2001/REC-SVG-20010904/DTD/svg10.dtd">
<svg version="1.0" xmlns="http://www.w3.org/2000/svg"
 viewBox="0 0 400.000000 40.000000"
 preserveAspectRatio="xMidYMid meet">

<g transform="translate(0.000000,40.000000) scale(0.100000,-0.100000)"
fill="current" stroke="none">
<path d="M1907 294 l-99 -95 99 -94 98 -94 95 95 95 94 -95 94 -95 95 -98 -95z"/>
<path d="M1213 259 l-31 -31 -567 -9 c-313 -5 -570 -11 -573 -14 -3 -3 -3 -7
0 -10 2 -3 260 -9 573 -14 l568 -10 34 -33 33 -32 47 47 47 47 -44 45 c-24 25
-47 45 -50 45 -3 0 -19 -14 -37 -31z"/>
<path d="M1540 245 l-44 -45 45 -45 45 -45 44 45 44 45 -45 45 -45 45 -44 -45z"/>
<path d="M2380 245 l-44 -45 45 -45 45 -45 44 45 44 45 -45 45 -45 45 -44 -45z"/>
<path d="M2700 245 l-44 -45 44 -45 44 -45 32 31 32 31 568 9 c312 5 569 11
572 14 3 3 3 7 0 10 -2 3 -260 9 -573 14 l-568 10 -31 30 -32 31 -44 -45z"/>
<path d="M1384 216 c-12 -31 0 -51 30 -51 36 0 56 26 37 49 -17 20 -60 21 -67
2z"/>
<path d="M1704 216 c-12 -31 0 -51 30 -51 36 0 56 26 37 49 -17 20 -60 21 -67
2z"/>
<path d="M2224 216 c-12 -31 0 -51 30 -51 36 0 56 26 37 49 -17 20 -60 21 -67
2z"/>
<path d="M2544 216 c-12 -31 0 -51 30 -51 36 0 56 26 37 49 -17 20 -60 21 -67
2z"/>
</g>
</svg>
