<?xml version="1.0" encoding="UTF-8"?>
<!DOCTYPE svg PUBLIC "-//W3C//DTD SVG 1.1//EN" "http://www.w3.org/Graphics/SVG/1.1/DTD/svg11.dtd">
<svg xmlns="http://www.w3.org/2000/svg" version="1.1" width="512px" height="512px" 
xmlns:xlink="http://www.w3.org/1999/xlink">
<g><path fill="current" d="M 511.5,356.5 C 511.5,360.167 511.5,363.833 511.5,367.5C 501.462,380.376 490.128,392.209 477.5,403C 470.998,406.454 464.665,406.121 458.5,402C 390.986,334.32 323.32,266.82 255.5,199.5C 187.68,266.82 120.014,334.32 52.5,402C 46.3352,406.121 40.0018,406.454 33.5,403C 20.8717,392.209 9.53838,380.376 -0.5,367.5C -0.5,363.833 -0.5,360.167 -0.5,356.5C 80.9104,273.589 162.91,191.089 245.5,109C 252.167,104.333 258.833,104.333 265.5,109C 348.09,191.089 430.09,273.589 511.5,356.5 Z"/></g>
</svg>
